<svg width="76" height="76" viewBox="0 0 76 76" fill="none" xmlns="http://www.w3.org/2000/svg">
<rect width="76" height="76" rx="38" fill="#18181C"/>
<mask id="mask0_93_130" style="mask-type:alpha" maskUnits="userSpaceOnUse" x="23" y="22" width="30" height="34">
<path d="M35 23.7321C36.8564 22.6603 39.1436 22.6603 41 23.7321L49.7224 28.7679C51.5788 29.8397 52.7224 31.8205 52.7224 33.9641V44.0359C52.7224 46.1795 51.5788 48.1603 49.7224 49.2321L41 54.2679C39.1436 55.3397 36.8564 55.3397 35 54.2679L26.2776 49.2321C24.4212 48.1603 23.2776 46.1795 23.2776 44.0359V33.9641C23.2776 31.8205 24.4212 29.8397 26.2776 28.7679L35 23.7321Z" fill="white"/>
</mask>
<g mask="url(#mask0_93_130)">
<path d="M46.5497 33.3811L38 37.6152L29.4503 33.3811L38 28.4955L46.5497 33.3811Z" fill="white"/>
<path d="M29.0346 43.8526V33.9448L37.6552 38.214V39.4991V48.7787L29.0361 43.8535L29.0346 43.8526Z" fill="white"/>
<path d="M46.9655 43.8526L46.964 43.8535L38.3448 48.7787V39.4991V38.214L46.9655 33.9448V43.8526Z" fill="white"/>
<path d="M38 22L52.7224 30.5V47.5L38 56L23.2776 47.5V30.5L38 22Z" fill="white"/>
<path d="M57.05 28.8317L38 37.8305M38 61.8272V37.8305M18.95 28.8317L38 37.8305" stroke="#18181C" stroke-width="2"/>
</g>
</svg>
