<svg width="76" height="76" viewBox="0 0 76 76" fill="none" xmlns="http://www.w3.org/2000/svg">
<rect width="76" height="76" rx="38" fill="#18181C"/>
<path fill-rule="evenodd" clip-rule="evenodd" d="M37.5 51.2553C37.5 51.8387 37.0011 52.3018 36.4256 52.2057C30.5093 51.2176 26 46.0739 26 39.877C26 33.8086 29.0908 27.5911 35.6119 23.4588C35.8497 23.3081 36.0965 23.1777 36.3497 23.0677C36.9243 22.8181 37.5 23.2939 37.5 23.9203V51.2553Z" fill="white"/>
<path fill-rule="evenodd" clip-rule="evenodd" d="M49.662 36.9511C50.2267 36.7998 50.8028 37.163 50.8724 37.7435C50.9577 38.4544 51 39.1667 51 39.8771C51 40.2267 50.9856 40.5729 50.9575 40.9153C50.9245 41.3168 50.6322 41.6443 50.243 41.7486L40.7588 44.2898C40.1237 44.46 39.5 43.9814 39.5 43.3239V40.4413C39.5 39.9887 39.804 39.5925 40.2412 39.4754L49.662 36.9511ZM40.2412 47.0167C39.804 47.1339 39.5 47.53 39.5 47.9827V51.2554C39.5 51.8388 39.9989 52.3018 40.5744 52.2057C44.3179 51.5805 47.4982 49.2915 49.3291 46.1246C49.7381 45.4173 49.0674 44.6517 48.2782 44.8632L40.2412 47.0167ZM40.7588 36.7485C40.1237 36.9187 39.5 36.4401 39.5 35.7825V32.6671C39.5 32.2039 39.818 31.8013 40.2686 31.6942L47.2989 30.0222C47.7098 29.9245 48.1401 30.0942 48.3575 30.4563C48.9028 31.3644 49.3621 32.2996 49.7369 33.2524C49.947 33.7867 49.6289 34.3718 49.0743 34.5203L40.7588 36.7485ZM44.821 28.1186C45.5337 27.9277 45.7971 27.0599 45.2735 26.5401C44.1495 25.4244 42.8557 24.3888 41.3881 23.4588C41.1503 23.3081 40.9035 23.1778 40.6503 23.0677C40.0757 22.8181 39.5 23.2939 39.5 23.9203V28.2412C39.5 28.8987 40.1237 29.3773 40.7588 29.2071L44.821 28.1186Z" fill="white"/>
</svg>
