<svg width="76" height="76" viewBox="0 0 76 76" fill="none" xmlns="http://www.w3.org/2000/svg">
<rect width="76" height="76" rx="38" fill="#18181C"/>
<path fill-rule="evenodd" clip-rule="evenodd" d="M36.7896 53.9264C32.8464 51.3035 23.6116 43.8278 22.9284 30.9867C22.8808 30.0918 23.4792 29.3003 24.3238 29.0007C26.9019 28.0862 32.4731 25.7865 37.0373 21.6681C37.8913 20.8976 39.217 20.8976 40.0711 21.6681C44.6353 25.7865 50.2065 28.0862 52.7846 29.0007C53.6292 29.3003 54.2276 30.0918 54.18 30.9867C53.4968 43.8278 44.262 51.3035 40.3188 53.9264C39.236 54.6467 37.8724 54.6467 36.7896 53.9264ZM43 33C43 35.4853 40.9853 37.5 38.5 37.5C36.0147 37.5 34 35.4853 34 33C34 30.5147 36.0147 28.5 38.5 28.5C40.9853 28.5 43 30.5147 43 33ZM37.1355 50.5892C37.9873 51.1928 39.1211 51.1928 39.9728 50.5892C41.1269 49.7714 42.6753 48.5358 44.2442 46.8706C44.8301 46.2487 45.4176 45.5683 45.988 44.8287C46.6493 43.971 46.7437 42.7731 46.0372 41.9522C44.3472 39.9889 41.6248 38.9143 38.5542 38.9143C35.4836 38.9143 32.7612 39.9889 31.0712 41.9523C30.3647 42.7732 30.4591 43.9711 31.1205 44.8288C31.6908 45.5684 32.2783 46.2487 32.8642 46.8706C34.4331 48.5358 35.9815 49.7714 37.1355 50.5892Z" fill="white"/>
</svg>
