<svg width="76" height="76" viewBox="0 0 76 76" fill="none" xmlns="http://www.w3.org/2000/svg">
<rect width="76" height="76" rx="38" fill="#18181C"/>
<g clip-path="url(#clip0_93_247)">
<path d="M53.0527 37.9087C53.0527 39.3027 49.4474 40.4327 45 40.4327C40.5527 40.4327 36.9474 39.3027 36.9474 37.9087C36.9474 36.5147 40.5527 35.3846 45 35.3846C49.4474 35.3846 53.0527 36.5147 53.0527 37.9087Z" fill="#18181C"/>
<path d="M45 44.0385C49.4474 44.0385 53.0527 42.9084 53.0527 41.5145V37.9087C53.0527 39.3027 49.4474 40.4327 45 40.4327C40.5527 40.4327 36.9474 39.3027 36.9474 37.9087V41.5145C36.9474 42.9084 40.5527 44.0385 45 44.0385Z" fill="#18181C"/>
<path d="M53.0527 37.9087C53.0527 39.3027 49.4474 40.4327 45 40.4327C40.5527 40.4327 36.9474 39.3027 36.9474 37.9087M53.0527 37.9087C53.0527 36.5147 49.4474 35.3846 45 35.3846C40.5527 35.3846 36.9474 36.5147 36.9474 37.9087M53.0527 37.9087V41.5145C53.0527 42.9084 49.4474 44.0385 45 44.0385C40.5527 44.0385 36.9474 42.9084 36.9474 41.5145V37.9087" stroke="white"/>
<path d="M53.0527 30.4967C53.0527 32.0456 49.4474 33.3012 45 33.3012C40.5527 33.3012 36.9474 32.0456 36.9474 30.4967C36.9474 28.9479 40.5527 27.6923 45 27.6923C49.4474 27.6923 53.0527 28.9479 53.0527 30.4967Z" fill="#18181C"/>
<path d="M45 37.3076C49.4474 37.3076 53.0527 36.052 53.0527 34.5032V30.4967C53.0527 32.0456 49.4474 33.3012 45 33.3012C40.5527 33.3012 36.9474 32.0456 36.9474 30.4967V34.5032C36.9474 36.052 40.5527 37.3076 45 37.3076Z" fill="#18181C"/>
<path d="M53.0527 30.4967C53.0527 32.0456 49.4474 33.3012 45 33.3012C40.5527 33.3012 36.9474 32.0456 36.9474 30.4967M53.0527 30.4967C53.0527 28.9479 49.4474 27.6923 45 27.6923C40.5527 27.6923 36.9474 28.9479 36.9474 30.4967M53.0527 30.4967V34.5032C53.0527 36.052 49.4474 37.3076 45 37.3076C40.5527 37.3076 36.9474 36.052 36.9474 34.5032V30.4967" stroke="white"/>
<path d="M53.0527 23.4856C53.0527 24.8796 49.4474 26.0096 45 26.0096C40.5527 26.0096 36.9474 24.8796 36.9474 23.4856C36.9474 22.0916 40.5527 20.9615 45 20.9615C49.4474 20.9615 53.0527 22.0916 53.0527 23.4856Z" fill="#18181C"/>
<path d="M45 29.6154C49.4474 29.6154 53.0527 28.4853 53.0527 27.0914V23.4856C53.0527 24.8796 49.4474 26.0096 45 26.0096C40.5527 26.0096 36.9474 24.8796 36.9474 23.4856V27.0914C36.9474 28.4853 40.5527 29.6154 45 29.6154Z" fill="#18181C"/>
<path d="M53.0527 23.4856C53.0527 24.8796 49.4474 26.0096 45 26.0096C40.5527 26.0096 36.9474 24.8796 36.9474 23.4856M53.0527 23.4856C53.0527 22.0916 49.4474 20.9615 45 20.9615C40.5527 20.9615 36.9474 22.0916 36.9474 23.4856M53.0527 23.4856V27.0914C53.0527 28.4853 49.4474 29.6154 45 29.6154C40.5527 29.6154 36.9474 28.4853 36.9474 27.0914V23.4856" stroke="white"/>
</g>
<path d="M17.3824 35.5121C18.0771 46.9584 26.4611 53.6681 30.1594 56.0881C31.2236 56.7845 32.5627 56.7845 33.627 56.0881C37.3253 53.6681 45.7092 46.9584 46.404 35.5121C46.4586 34.6128 45.8484 33.817 44.9981 33.5194C42.5716 32.6703 37.5491 30.6176 33.3938 26.9953C32.5416 26.2524 31.2448 26.2524 30.3926 26.9953C26.2373 30.6176 21.2148 32.6703 18.7883 33.5194C17.9379 33.817 17.3278 34.6128 17.3824 35.5121Z" fill="#18181C"/>
<path fill-rule="evenodd" clip-rule="evenodd" d="M30.277 54.3958C26.9049 52.1574 19.7019 46.2524 19.0208 36.3078C18.9592 35.4085 19.5676 34.6115 20.4173 34.3103C22.608 33.5339 26.8912 31.7537 30.4954 28.6778C31.3536 27.9453 32.6464 27.9453 33.5047 28.6778C37.1089 31.7537 41.3921 33.5339 43.5828 34.3103C44.4325 34.6115 45.0408 35.4085 44.9792 36.3078C44.2982 46.2524 37.0951 52.1574 33.7231 54.3958C32.6661 55.0974 31.3339 55.0974 30.277 54.3958ZM35.6981 37.6346C35.6981 39.645 34.0222 41.2748 31.9549 41.2748C29.8876 41.2748 28.2118 39.645 28.2118 37.6346C28.2118 35.6241 29.8876 33.9943 31.9549 33.9943C34.0222 33.9943 35.6981 35.6241 35.6981 37.6346ZM30.8496 51.3729C31.513 51.844 32.3969 51.844 33.0603 51.3729C33.9594 50.7344 35.1659 49.7696 36.3883 48.4695C36.783 48.0497 37.1786 47.5958 37.5657 47.1073C38.3081 46.1706 38.3146 44.8109 37.3704 44.0781C35.9807 42.9993 34.0871 42.419 32.0001 42.419C29.8718 42.419 27.9447 43.0225 26.5479 44.1426C25.6239 44.8835 25.6438 46.229 26.3821 47.1551C26.7571 47.6254 27.1398 48.0634 27.5216 48.4695C28.744 49.7696 29.9504 50.7344 30.8496 51.3729Z" fill="white"/>
<defs>
<clipPath id="clip0_93_247">
<rect width="18" height="25" fill="white" transform="translate(36 20)"/>
</clipPath>
</defs>
</svg>
