<svg width="76" height="76" viewBox="0 0 76 76" fill="none" xmlns="http://www.w3.org/2000/svg">
<rect width="76" height="76" rx="38" fill="#18181C"/>
<path fill-rule="evenodd" clip-rule="evenodd" d="M25.75 28.75H50.25V31.25H25.75V28.75Z" fill="white"/>
<path fill-rule="evenodd" clip-rule="evenodd" d="M29.2492 41.4468L29.2492 41.4483L29.3035 42.6945L26.8058 42.8031L26.7515 41.5543L28.0003 41.5C26.7515 41.5543 26.7514 41.553 26.7514 41.553L26.7514 41.5515L26.7512 41.5475L26.7508 41.5365L26.7497 41.5021C26.7489 41.4737 26.748 41.4346 26.7475 41.3854C26.7463 41.287 26.7464 41.1483 26.7507 40.9748C26.7593 40.6284 26.7849 40.1411 26.8523 39.5592C26.9864 38.4022 27.29 36.8359 27.9788 35.2516C28.6695 33.663 29.7628 32.0228 31.4894 30.7819C33.2265 29.5333 35.5203 28.75 38.5003 28.75C41.4803 28.75 43.7741 29.5333 45.5112 30.7819C47.2378 32.0228 48.3311 33.663 49.0218 35.2516C49.7106 36.8359 50.0142 38.4022 50.1483 39.5592C50.2157 40.1411 50.2413 40.6284 50.2499 40.9748C50.2542 41.1483 50.2543 41.287 50.2532 41.3854C50.2526 41.4346 50.2517 41.4737 50.2509 41.5021L50.2498 41.5365L50.2494 41.5475L50.2492 41.5515L50.2492 41.553C50.2492 41.553 50.2491 41.5543 49.0003 41.5L50.2491 41.5543L50.1948 42.8031L47.6972 42.6945L47.7514 41.4483L47.7514 41.4468L47.7515 41.4457L47.7519 41.4319C47.7523 41.4168 47.7529 41.3914 47.7533 41.3563C47.7541 41.2862 47.7542 41.1779 47.7507 41.0369C47.7437 40.7544 47.7224 40.3433 47.6649 39.8471C47.5491 38.8478 47.2902 37.5391 46.7291 36.2484C46.1698 34.962 45.3256 33.7272 44.0521 32.8119C42.7892 31.9042 41.0205 31.25 38.5003 31.25C35.9801 31.25 34.2114 31.9042 32.9485 32.8119C31.675 33.7272 30.8308 34.962 30.2715 36.2484C29.7104 37.5391 29.4515 38.8478 29.3357 39.8471C29.2782 40.3433 29.2569 40.7544 29.2499 41.0369C29.2464 41.1779 29.2465 41.2862 29.2473 41.3563C29.2477 41.3914 29.2483 41.4168 29.2487 41.4319L29.2492 41.4468Z" fill="white"/>
<path d="M43.5 30C43.5 32.7614 41.2614 35 38.5 35C35.7386 35 33.5 32.7614 33.5 30C33.5 27.2386 35.7386 25 38.5 25C41.2614 25 43.5 27.2386 43.5 30Z" fill="white"/>
<path d="M27 30C27 31.3807 25.8807 32.5 24.5 32.5C23.1193 32.5 22 31.3807 22 30C22 28.6193 23.1193 27.5 24.5 27.5C25.8807 27.5 27 28.6193 27 30Z" fill="white"/>
<path d="M54 30C54 31.3807 52.8807 32.5 51.5 32.5C50.1193 32.5 49 31.3807 49 30C49 28.6193 50.1193 27.5 51.5 27.5C52.8807 27.5 54 28.6193 54 30Z" fill="white"/>
<path d="M32 45.5C32 47.7091 30.2091 49.5 28 49.5C25.7909 49.5 24 47.7091 24 45.5C24 43.2909 25.7912 41.5 28.0003 41.5C30.2094 41.5 32 43.2909 32 45.5Z" fill="white"/>
<path d="M53 45.5C53 47.7091 51.2091 49.5 49 49.5C46.7909 49.5 45 47.7091 45 45.5C45 43.2909 46.7912 41.5 49.0003 41.5C51.2094 41.5 53 43.2909 53 45.5Z" fill="white"/>
</svg>
