<svg width="76" height="76" viewBox="0 0 76 76" fill="none" xmlns="http://www.w3.org/2000/svg">
<rect width="76" height="76" rx="38" fill="#18181C"/>
<path d="M43.8492 27.9081L48.0919 32.1507C49.2634 33.3223 49.2634 35.2218 48.0919 36.3934L39.9142 44.571C38.6543 45.831 36.5 44.9386 36.5 43.1568V33.5C36.5 33.2128 36.5206 32.9278 36.5609 32.6469C36.7442 31.3709 37.3352 30.1795 38.2574 29.2573L39.6066 27.9081C40.7782 26.7365 42.6777 26.7365 43.8492 27.9081Z" fill="white"/>
<path d="M53 44V50C53 51.6569 51.6569 53 50 53H38.2426C36.4608 53 35.5685 50.8457 36.8284 49.5858L43.6569 42.7574C44.7821 41.6321 46.3082 41 47.8995 41H50C51.6569 41 53 42.3431 53 44Z" fill="white"/>
<path fill-rule="evenodd" clip-rule="evenodd" d="M26 23H32C33.6569 23 35 24.3431 35 26V47C35 50.3137 32.3137 53 29 53C25.6863 53 23 50.3137 23 47V26C23 24.3431 24.3431 23 26 23ZM29 49C30.1046 49 31 48.1046 31 47C31 45.8954 30.1046 45 29 45C27.8954 45 27 45.8954 27 47C27 48.1046 27.8954 49 29 49Z" fill="white"/>
</svg>
