<svg width="76" height="76" viewBox="0 0 76 76" fill="none" xmlns="http://www.w3.org/2000/svg">
<rect width="76" height="76" rx="38" fill="#18181C"/>
<path fill-rule="evenodd" clip-rule="evenodd" d="M33 27.5C33 25.0147 30.9853 23 28.5 23V23C26.0147 23 24 25.0147 24 27.5V29H33V27.5ZM24 32V44.946C24 45.3085 24.0985 45.6642 24.285 45.975L27.2138 50.8563C27.7964 51.8273 29.2036 51.8273 29.7862 50.8563L32.715 45.975C32.9015 45.6642 33 45.3085 33 44.946V32H24Z" fill="white"/>
<path fill-rule="evenodd" clip-rule="evenodd" d="M48.5 23C50.7091 23 52.5 24.7909 52.5 27V48.5C52.5 50.7091 50.7091 52.5 48.5 52.5H41.5C39.2909 52.5 37.5 50.7091 37.5 48.5V48.5H43.5C44.0523 48.5 44.5 48.0523 44.5 47.5V46C44.5 45.4477 44.0523 45 43.5 45H37.5V42H44.5C45.0523 42 45.5 41.5523 45.5 41V40.5C45.5 39.9477 45.0523 39.5 44.5 39.5H37.5V36H41.5C42.0523 36 42.5 35.5523 42.5 35V34.5C42.5 33.9477 42.0523 33.5 41.5 33.5H37.5V30H45C45.5523 30 46 29.5523 46 29V28.5C46 27.9477 45.5523 27.5 45 27.5H37.5V27C37.5 24.7909 39.2909 23 41.5 23H48.5Z" fill="white"/>
</svg>
