<svg width="72" height="72" viewBox="0 0 72 72" fill="none" xmlns="http://www.w3.org/2000/svg">
<path fill-rule="evenodd" clip-rule="evenodd" d="M27 21C23.134 21 20 24.134 20 28V40C20 43.866 23.134 47 27 47H29.2186C30.3525 47 31.4332 47.4813 32.1917 48.3241L34.1554 50.506C34.8969 51.3299 36.1671 51.3936 36.9873 50.6479L39.8557 48.0402C40.592 47.3709 41.5514 47 42.5464 47H45C48.866 47 52 43.866 52 40V28C52 24.134 48.866 21 45 21H27ZM31 34C31 35.1046 30.1046 36 29 36C27.8954 36 27 35.1046 27 34C27 32.8954 27.8954 32 29 32C30.1046 32 31 32.8954 31 34ZM45 34C45 35.1046 44.1046 36 43 36C41.8954 36 41 35.1046 41 34C41 32.8954 41.8954 32 43 32C44.1046 32 45 32.8954 45 34ZM36 36C37.1046 36 38 35.1046 38 34C38 32.8954 37.1046 32 36 32C34.8954 32 34 32.8954 34 34C34 35.1046 34.8954 36 36 36Z" fill="#18181C"/>
</svg>
