<svg width="25" height="25" viewBox="0 0 25 25" fill="none" xmlns="http://www.w3.org/2000/svg">
<path fill-rule="evenodd" clip-rule="evenodd" d="M18.6149 6.19471L5.38061 9.50328C4.96841 9.60633 4.86492 10.1413 5.20536 10.3909L8.932 13.1238C10.2622 12.3757 11.4069 11.3191 12.0379 10.8082C12.2272 10.6052 11.8595 10.9866 12.0379 10.8082C12.5594 10.2866 13.2624 9.78083 13.6058 9.48643C13.7778 9.33903 13.3917 9.65845 13.4903 9.57876C13.5396 9.5389 13.5785 9.50796 13.6058 9.48643L13.638 9.46123L13.6473 9.45403L13.6502 9.4518L13.6512 9.45103C13.6512 9.45103 13.6519 9.45049 14.2616 10.2431L13.6512 9.45103C14.0759 9.12433 14.6935 9.09279 15.0379 9.50328C15.3823 9.91376 15.3317 10.6199 14.9362 10.9813C14.5774 11.3092 14.6817 11.2794 14.5051 11.4576C14.4341 11.5293 14.32 11.6378 14.32 11.6378C14.32 11.6378 11.7315 14.3449 11.2077 15.2464C11.9373 16.3151 12.7218 17.4857 13.4348 18.558C13.918 19.2848 15.0299 19.1007 15.2593 18.2746L18.6149 6.19471ZM9.293 15.2464C8.97772 14.9607 8.42674 15.2463 8.08409 14.994L4.02263 12.0037C2.31386 10.7506 2.84245 8.07626 4.89554 7.56299L18.9626 4.04624C20.0778 3.76742 21.0793 4.79527 20.7716 5.90292L17.1864 18.8099C16.4943 21.3013 13.1924 21.8056 11.7693 19.6653C11.2241 18.8454 10.2681 17.4305 9.71707 16.6161C9.44505 16.2142 9.65263 15.5723 9.293 15.2464V15.2464V15.2464Z" fill="#FFF6FF"/>
</svg>
