<svg width="72" height="72" viewBox="0 0 72 72" fill="none" xmlns="http://www.w3.org/2000/svg">
<g clip-path="url(#clip0_120_337)">
<path d="M48.5 32.0001C48.5 37.5001 44 42.0001 36.5 42.0001C28 42.0001 24.5 37.523 24.5 32.0001C24.5 28.9934 25.3036 26.7902 26.7175 25.2296C27.7709 24.0669 29.1631 23.2608 30.814 22.7448C32.4746 22.2257 34.3971 22.0001 36.5 22.0001C38.4881 22.0001 40.336 22.2251 42 22.7557C43.5896 23.2626 45.0146 24.0484 46.094 25.1834C47.579 26.7448 48.5 28.9855 48.5 32.0001Z" fill="#18181C"/>
<path d="M46.094 25.1834C46.094 25.1834 47.3705 22.1809 46.094 20.1728C46.0096 20.0399 45.8587 19.9636 45.7022 19.981C43.8046 20.1917 42 22.7557 42 22.7557C43.5896 23.2626 45.0146 24.0484 46.094 25.1834Z" fill="#18181C"/>
<path d="M26.5 47.0001C23.9321 45.2883 24.921 43.3921 21.8609 40.7946C21.7091 40.6657 21.7541 40.4176 21.9478 40.3711C25.9715 39.4064 25.655 45.0001 30 45.0001C32.2263 45.0001 35.5 43.5001 35.5 43.5001L35.5 47.5C30 48.5001 28 48 26.5 47.0001Z" fill="#18181C"/>
<path d="M33.5 41.0001H39.5C41 42.5001 41 48.0001 41 53.0001H32C32 48.0001 32 42.5001 33.5 41.0001Z" fill="#18181C"/>
<path d="M26.8578 20.2058C25.5805 22.2137 26.7175 25.2296 26.7175 25.2296C27.7709 24.0669 29.1631 23.2608 30.814 22.7448C30.814 22.7448 29.1484 20.2246 27.2495 20.0141C27.0931 19.9967 26.9422 20.073 26.8578 20.2058Z" fill="#18181C"/>
</g>
<defs>
<clipPath id="clip0_120_337">
<path d="M20 20H52V36C52 44.8366 44.8366 52 36 52V52C27.1634 52 20 44.8366 20 36V20Z" fill="white"/>
</clipPath>
</defs>
</svg>
