<svg width="76" height="76" viewBox="0 0 76 76" fill="none" xmlns="http://www.w3.org/2000/svg">
<rect width="76" height="76" rx="38" fill="#18181C"/>
<path d="M53.0527 37.214C53.0527 38.608 49.4474 39.738 45 39.738C40.5527 39.738 36.9474 38.608 36.9474 37.214C36.9474 35.82 40.5527 34.6899 45 34.6899C49.4474 34.6899 53.0527 35.82 53.0527 37.214Z" fill="#18181C"/>
<path d="M45 43.3438C49.4474 43.3438 53.0527 42.2137 53.0527 40.8197V37.214C53.0527 38.608 49.4474 39.738 45 39.738C40.5527 39.738 36.9474 38.608 36.9474 37.214V40.8197C36.9474 42.2137 40.5527 43.3438 45 43.3438Z" fill="#18181C"/>
<path d="M53.0527 37.214C53.0527 38.608 49.4474 39.738 45 39.738C40.5527 39.738 36.9474 38.608 36.9474 37.214M53.0527 37.214C53.0527 35.82 49.4474 34.6899 45 34.6899C40.5527 34.6899 36.9474 35.82 36.9474 37.214M53.0527 37.214V40.8197C53.0527 42.2137 49.4474 43.3438 45 43.3438C40.5527 43.3438 36.9474 42.2137 36.9474 40.8197V37.214" stroke="white" stroke-width="1.25"/>
<path d="M53.0527 30.2152C53.0527 31.6085 49.4474 32.7381 45 32.7381C40.5527 32.7381 36.9474 31.6085 36.9474 30.2152C36.9474 28.8218 40.5527 27.6923 45 27.6923C49.4474 27.6923 53.0527 28.8218 53.0527 30.2152Z" fill="#18181C"/>
<path d="M45 36.3423C49.4474 36.3423 53.0527 35.2127 53.0527 33.8193V30.2152C53.0527 31.6085 49.4474 32.7381 45 32.7381C40.5527 32.7381 36.9474 31.6085 36.9474 30.2152V33.8193C36.9474 35.2127 40.5527 36.3423 45 36.3423Z" fill="#18181C"/>
<path d="M53.0527 30.2152C53.0527 31.6085 49.4474 32.7381 45 32.7381C40.5527 32.7381 36.9474 31.6085 36.9474 30.2152M53.0527 30.2152C53.0527 28.8218 49.4474 27.6923 45 27.6923C40.5527 27.6923 36.9474 28.8218 36.9474 30.2152M53.0527 30.2152V33.8193C53.0527 35.2127 49.4474 36.3423 45 36.3423C40.5527 36.3423 36.9474 35.2127 36.9474 33.8193V30.2152" stroke="white" stroke-width="1.25"/>
<path d="M53.0527 23.4856C53.0527 24.8796 49.4474 26.0096 45 26.0096C40.5527 26.0096 36.9474 24.8796 36.9474 23.4856C36.9474 22.0916 40.5527 20.9615 45 20.9615C49.4474 20.9615 53.0527 22.0916 53.0527 23.4856Z" fill="#18181C"/>
<path d="M45 29.6154C49.4474 29.6154 53.0527 28.4853 53.0527 27.0914V23.4856C53.0527 24.8796 49.4474 26.0096 45 26.0096C40.5527 26.0096 36.9474 24.8796 36.9474 23.4856V27.0914C36.9474 28.4853 40.5527 29.6154 45 29.6154Z" fill="#18181C"/>
<path d="M53.0527 23.4856C53.0527 24.8796 49.4474 26.0096 45 26.0096C40.5527 26.0096 36.9474 24.8796 36.9474 23.4856M53.0527 23.4856C53.0527 22.0916 49.4474 20.9615 45 20.9615C40.5527 20.9615 36.9474 22.0916 36.9474 23.4856M53.0527 23.4856V27.0914C53.0527 28.4853 49.4474 29.6154 45 29.6154C40.5527 29.6154 36.9474 28.4853 36.9474 27.0914V23.4856" stroke="white" stroke-width="1.25"/>
<path d="M17.0429 35.3189C17.7283 47.3747 26.4465 54.4237 30.2477 56.9409C31.3224 57.6526 32.6776 57.6526 33.7523 56.9409C37.5535 54.4237 46.2717 47.3746 46.9571 35.3189C47.0081 34.4223 46.4046 33.6301 45.5578 33.3308C43.0719 32.4522 37.8308 30.2922 33.5112 26.4564C32.657 25.6979 31.343 25.6979 30.4888 26.4564C26.1692 30.2922 20.9281 32.4522 18.4422 33.3308C17.5954 33.6301 16.9919 34.4223 17.0429 35.3189Z" fill="#18181C"/>
<path fill-rule="evenodd" clip-rule="evenodd" d="M30.277 54.3958C26.9049 52.1574 19.7019 46.2524 19.0208 36.3078C18.9592 35.4085 19.5676 34.6115 20.4173 34.3103C22.608 33.5339 26.8912 31.7537 30.4954 28.6778C31.3536 27.9453 32.6464 27.9453 33.5047 28.6778C37.1089 31.7537 41.3921 33.5339 43.5828 34.3103C44.4325 34.6115 45.0408 35.4085 44.9792 36.3078C44.2982 46.2524 37.0951 52.1574 33.7231 54.3958C32.6661 55.0974 31.3339 55.0974 30.277 54.3958ZM35.6981 37.6346C35.6981 39.645 34.0222 41.2748 31.9549 41.2748C29.8876 41.2748 28.2118 39.645 28.2118 37.6346C28.2118 35.6241 29.8876 33.9943 31.9549 33.9943C34.0222 33.9943 35.6981 35.6241 35.6981 37.6346ZM30.8496 51.3729C31.513 51.844 32.3969 51.844 33.0603 51.3729C33.9594 50.7344 35.1659 49.7696 36.3883 48.4695C36.783 48.0497 37.1786 47.5958 37.5657 47.1073C38.3081 46.1706 38.3146 44.8109 37.3704 44.0781C35.9807 42.9993 34.0871 42.419 32.0001 42.419C29.8718 42.419 27.9447 43.0225 26.5479 44.1426C25.6239 44.8835 25.6438 46.229 26.3821 47.1551C26.7571 47.6254 27.1398 48.0634 27.5216 48.4695C28.744 49.7696 29.9504 50.7344 30.8496 51.3729Z" fill="white"/>
</svg>
