<svg width="128" height="128" viewBox="0 0 128 128" fill="none" xmlns="http://www.w3.org/2000/svg">
<circle cx="64" cy="64" r="62" stroke="#18181C" stroke-width="4"/>
<path d="M74.0253 80.481L66.9072 100.923C66.4741 102.167 65.3013 103 63.9843 103C62.6652 103 61.491 102.164 61.0595 100.917L53.9776 80.4586C53.5584 79.2475 54.4579 77.9844 55.7394 77.9844C56.5647 77.9844 57.2918 78.527 57.5267 79.3181L62.5445 96.2205C62.9691 97.6507 64.9944 97.6515 65.4201 96.2216L70.4504 79.327C70.6876 78.5305 71.4199 77.9844 72.251 77.9844C73.544 77.9844 74.4505 79.26 74.0253 80.481Z" fill="#877BC4"/>
<path d="M72.2822 61.7217C72.2822 60.8838 72.1533 60.1318 71.8955 59.4658C71.6592 58.7783 71.208 58.1553 70.542 57.5967C69.876 57.0166 68.9414 56.4473 67.7383 55.8887C66.5352 55.3301 64.9775 54.75 63.0654 54.1484C60.9385 53.4609 58.9189 52.6875 57.0068 51.8281C55.1162 50.9688 53.4404 49.9697 51.9795 48.8311C50.54 47.6709 49.4014 46.3281 48.5635 44.8027C47.7471 43.2773 47.3389 41.5049 47.3389 39.4854C47.3389 37.5303 47.7686 35.7578 48.6279 34.168C49.4873 32.5566 50.6904 31.1816 52.2373 30.043C53.7842 28.8828 55.6104 27.9912 57.7158 27.3682C59.8428 26.7451 62.1738 26.4336 64.709 26.4336C68.168 26.4336 71.1865 27.0566 73.7646 28.3027C76.3428 29.5488 78.3408 31.2568 79.7588 33.4268C80.3302 34.2881 80.7882 35.1986 81.1328 36.1582C82.0291 38.6541 79.7681 40.8711 77.1162 40.8711H76.0689C73.9954 40.8711 72.4609 39.0689 71.4443 37.2617V37.2617C70.8857 36.209 70.0264 35.3818 68.8662 34.7803C67.7275 34.1787 66.2881 33.8779 64.5479 33.8779C62.8721 33.8779 61.4756 34.1357 60.3584 34.6514C59.2412 35.1455 58.4033 35.8223 57.8447 36.6816C57.2861 37.5195 57.0068 38.4648 57.0068 39.5176C57.0068 40.3125 57.2002 41.0322 57.5869 41.6768C57.9951 42.3213 58.5967 42.9229 59.3916 43.4814C60.1865 44.04 61.1641 44.5664 62.3242 45.0605C63.4844 45.5547 64.8271 46.0381 66.3525 46.5107C68.9092 47.2842 71.1543 48.1543 73.0879 49.1211C75.043 50.0879 76.6758 51.1729 77.9863 52.376C79.2969 53.5791 80.2852 54.9434 80.9512 56.4688C81.6172 57.9941 81.9502 59.7236 81.9502 61.6572C81.9502 63.6982 81.5527 65.5244 80.7578 67.1357C79.9629 68.7471 78.8135 70.1113 77.3096 71.2285C75.8057 72.3457 74.0117 73.1943 71.9277 73.7744C69.8438 74.3545 67.5127 74.6445 64.9346 74.6445C62.6143 74.6445 60.3262 74.3438 58.0703 73.7422C55.8145 73.1191 53.7627 72.1846 51.915 70.9385C50.0889 69.6924 48.6279 68.1025 47.5322 66.1689C47.1608 65.5135 46.8523 64.8172 46.6068 64.0803C45.7601 61.539 48.0601 59.3047 50.7388 59.3047H51.794C53.8898 59.3047 55.4106 61.0972 56.2656 63.0107V63.0107C56.7168 64.0205 57.3506 64.8369 58.167 65.46C59.0049 66.083 59.9932 66.5342 61.1318 66.8135C62.292 67.0928 63.5596 67.2324 64.9346 67.2324C66.6104 67.2324 67.9854 66.9961 69.0596 66.5234C70.1553 66.0508 70.9609 65.3955 71.4766 64.5576C72.0137 63.7197 72.2822 62.7744 72.2822 61.7217Z" fill="#FCDA68"/>
</svg>
