<svg width="128" height="128" viewBox="0 0 128 128" fill="none" xmlns="http://www.w3.org/2000/svg">
<circle cx="64" cy="64" r="62.5" fill="#FCDA68" stroke="#FCDA68" stroke-width="3"/>
<path d="M75.5186 75.4219C75.5186 74.2598 75.3363 73.2344 74.9717 72.3457C74.6299 71.4342 74.0146 70.6139 73.126 69.8848C72.2601 69.1556 71.0524 68.4606 69.5029 67.7998C67.9762 67.139 66.0394 66.4668 63.6924 65.7832C61.2314 65.054 59.0098 64.2451 57.0273 63.3564C55.0449 62.445 53.3473 61.4082 51.9346 60.2461C50.5218 59.084 49.4395 57.751 48.6875 56.2471C47.9355 54.7432 47.5596 53.0228 47.5596 51.0859C47.5596 49.1491 47.9583 47.3604 48.7559 45.7197C49.5534 44.0791 50.6927 42.6549 52.1738 41.4473C53.6777 40.2168 55.4665 39.2598 57.54 38.5762C59.6136 37.8926 61.9264 37.5508 64.4785 37.5508C68.2155 37.5508 71.3828 38.2686 73.9805 39.7041C76.6009 41.1169 78.5947 42.974 79.9619 45.2754C81.3291 47.554 82.0127 49.9922 82.0127 52.5898H75.4502C75.4502 50.7214 75.0514 49.0693 74.2539 47.6338C73.4564 46.1755 72.2487 45.0361 70.6309 44.2158C69.013 43.3727 66.9622 42.9512 64.4785 42.9512C62.1315 42.9512 60.1947 43.3044 58.668 44.0107C57.1413 44.7171 56.002 45.6742 55.25 46.8818C54.5208 48.0895 54.1562 49.4681 54.1562 51.0176C54.1562 52.0658 54.3727 53.0228 54.8057 53.8887C55.2614 54.7318 55.9564 55.5179 56.8906 56.2471C57.8477 56.9762 59.0553 57.6484 60.5137 58.2637C61.9948 58.8789 63.7607 59.4714 65.8115 60.041C68.637 60.8385 71.0752 61.7272 73.126 62.707C75.1768 63.6868 76.863 64.792 78.1846 66.0225C79.529 67.2301 80.5202 68.6087 81.1582 70.1582C81.819 71.6849 82.1494 73.4167 82.1494 75.3535C82.1494 77.3815 81.7393 79.2158 80.9189 80.8564C80.0986 82.4971 78.9251 83.8984 77.3984 85.0605C75.8717 86.2227 74.0374 87.1227 71.8955 87.7607C69.7764 88.376 67.4066 88.6836 64.7861 88.6836C62.4847 88.6836 60.2174 88.3646 57.9844 87.7266C55.7741 87.0885 53.7575 86.1315 51.9346 84.8555C50.1344 83.5794 48.6875 82.0072 47.5938 80.1387C46.5228 78.2474 45.9873 76.0599 45.9873 73.5762H52.5498C52.5498 75.2852 52.8802 76.7549 53.541 77.9854C54.2018 79.193 55.1019 80.1956 56.2412 80.9932C57.4033 81.7907 58.7135 82.3831 60.1719 82.7705C61.653 83.1351 63.1911 83.3174 64.7861 83.3174C67.0876 83.3174 69.0358 82.9984 70.6309 82.3604C72.2259 81.7223 73.4336 80.8109 74.2539 79.626C75.097 78.4411 75.5186 77.0397 75.5186 75.4219Z" fill="#1C191D"/>
</svg>
